<?xml version="1.0" encoding="UTF-8"?>
<svg version="1.1" xmlns="http://www.w3.org/2000/svg" width="512" height="512">
<path d="M0 0 C168.96 0 337.92 0 512 0 C512 168.96 512 337.92 512 512 C343.04 512 174.08 512 0 512 C0 343.04 0 174.08 0 0 Z " fill="#00C49F" transform="translate(0,0)"/>
<path d="M0 0 C106.92 0 213.84 0 324 0 C324 32.01 324 64.02 324 97 C302.88 97 281.76 97 260 97 C260 86.11 260 75.22 260 64 C174.2 64 88.4 64 0 64 C0 42.88 0 21.76 0 0 Z " fill="#FEFEFE" transform="translate(94,277)"/>
<path d="M0 0 C2.5784903 2.01348247 4.79572849 4.07344517 6.9609375 6.53125 C7.45335937 7.08167969 7.94578125 7.63210937 8.453125 8.19921875 C15.15921295 16.289897 17.75633046 25.79219656 17.41796875 36.21875 C15.74774777 48.32428326 9.37194937 58.88385263 -0.0390625 66.53125 C-10.54182007 72.83835344 -19.90133785 74.59299927 -32.0390625 73.53125 C-43.34333567 70.48880061 -53.09666254 63.61142363 -59.2265625 53.58984375 C-64.56960414 43.55199714 -65.85109857 31.70168808 -63.38671875 20.58984375 C-58.97426347 8.4887325 -49.75152634 0.0810125 -38.46875 -5.48828125 C-25.64607368 -10.66270529 -10.94779003 -7.83631286 0 0 Z " fill="#FCFEFD" transform="translate(150.0390625,146.46875)"/>
<path d="M0 0 C9.03956486 5.70258264 15.29528466 14.61317827 18.08984375 24.94921875 C19.20656495 37.0124047 18.19570355 48.86190821 10.77734375 58.88671875 C9.58112858 60.27007963 8.35318033 61.62687282 7.08984375 62.94921875 C6.28740234 63.79419922 6.28740234 63.79419922 5.46875 64.65625 C-3.22980155 72.89588516 -13.9525235 75.29104663 -25.5625 75.16015625 C-36.64118858 74.46208252 -45.56202086 69.13714104 -52.91015625 60.94921875 C-53.90015625 59.89734375 -53.90015625 59.89734375 -54.91015625 58.82421875 C-61.42064868 49.46538589 -63.81553103 40.20735734 -62.91015625 28.94921875 C-60.76772799 17.45925319 -55.49604057 8.01812836 -46.03515625 1.01171875 C-31.14495194 -8.40214902 -15.40770914 -8.70103162 0 0 Z " fill="#FCFEFE" transform="translate(407.91015625,145.05078125)"/>
<path d="M0 0 C1.12148438 0.51046875 1.12148438 0.51046875 2.265625 1.03125 C12.24446401 6.05461113 18.59691206 13.80738466 23 24 C25.81673507 34.16098296 25.31539362 46.90283934 20.671875 56.3203125 C15.41756508 64.74194008 8.92381345 70.68753513 0 75 C-1.04220703 75.50853516 -1.04220703 75.50853516 -2.10546875 76.02734375 C-10.70197406 79.52723428 -21.1390204 79.28405515 -29.875 76.4375 C-40.34178276 72.01163489 -48.9306375 63.79299807 -53.9375 53.625 C-57.54310031 44.25995894 -57.97009137 31.32811537 -54.0390625 21.94140625 C-47.77898345 10.24494276 -40.3959413 3.03268462 -28 -2 C-18.85887063 -4.42400555 -8.58093863 -4.00013681 0 0 Z " fill="#FDFEFE" transform="translate(272,142)"/>
</svg>
